:SAMPLES-PER-SECOND 30
:FULLY-SPECIFIED
:DEGREES
325
root  0.363212 39.8778 16.0551 34.9094 64.6418 31.7066
RightUpLeg  -17.0143 0.848187 -18.6334
RightLeg  19.8268 9.49622 3.45328
RightFoot  -8.46248 -0.146883 3.55836
RightToes  -1.74624e-010 0 -3.6325e-017
Spine  12.347 -4.2836 19.4739
Spine1  -3.60312 -0.455159 -14.9512
HEad  -32.5987 -53.2103 10.7822
LeftShoulder1  0.449007 2.13292 -26.5377
LeftArm  -3.73872 15.5961 -37.9942
LeftForeArm  34.1793 -35.9332 -6.09043
LeftHand  -0.0184004 4.08947 -0.0142776
RightShoulder  0.0644126 -6.66991 -11.8184
RightArm  -38.1837 35.9048 -14.0532
RightForeArm  4.23825 -1.75247 -5.94246
RightHand  -0.922245 9.76775 -7.56104
LeftUpLeg  -1.84631 10.101 -4.0376
LeftLeg  21.4457 -3.70084 -1.26695
LeftFoot  -3.20818 0.847734 -11.6316
LeftToes  -3.96543e-010 8.93632e-011 -2.58531e-011
326
root  0.670268 39.9351 16.2064 36.0298 66.0204 32.6389
RightUpLeg  -15.5044 -2.22477 -17.7434
RightLeg  18.7155 11.3121 3.18498
RightFoot  -9.13418 -0.141379 4.13107
RightToes  -1.74624e-010 0 -3.6325e-017
Spine  11.6272 -4.20505 19.9392
Spine1  -2.84104 -0.484314 -13.9196
HEad  -29.7257 -53.2878 8.67733
LeftShoulder1  0.337591 2.4857 -27.0519
LeftArm  -3.63463 15.4049 -37.815
LeftForeArm  33.1845 -36.0822 -6.18683
LeftHand  -0.0156509 3.85107 0.126887
RightShoulder  -0.0532635 -6.62273 -7.604
RightArm  -43.7024 31.4321 -15.2717
RightForeArm  9.59734 10.4764 -3.43989
RightHand  -1.06589 6.56891 -10.534
LeftUpLeg  -2.973 8.30683 -3.33402
LeftLeg  24.9527 -1.82891 -0.599675
LeftFoot  -2.91013 0.787031 -10.4165
LeftToes  -3.96543e-010 8.93632e-011 -2.58531e-011
327
root  0.99028 39.9515 16.3494 36.9947 67.1743 33.4168
RightUpLeg  -14.3132 -5.43824 -16.96
RightLeg  18.0394 13.5485 3.08433
RightFoot  -9.95457 -0.124673 4.68627
RightToes  -1.74624e-010 0 -3.6325e-017
Spine  11.038 -3.99785 20.1611
Spine1  -2.28714 -0.422441 -12.8328
HEad  -25.2688 -49.2058 3.74699
LeftShoulder1  0.181685 2.97243 -27.8915
LeftArm  -3.48551 15.3732 -37.5187
LeftForeArm  33.4918 -36.3561 -6.24255
LeftHand  -0.0196224 4.14832 -0.0999256
RightShoulder  -0.169462 -6.53156 -3.21799
RightArm  -60.6658 25.1166 -14.4006
RightForeArm  29.965 26.9934 4.43788
RightHand  -0.895947 7.06207 -8.73648
LeftUpLeg  -4.49518 7.03417 -2.82221
LeftLeg  29.0341 -1.48173 -0.55823
LeftFoot  -2.98635 0.719626 -9.5938
LeftToes  -3.96543e-010 8.93632e-011 -2.58531e-011
328
root  1.28574 39.9575 16.4659 38.4559 68.4158 34.7007
RightUpLeg  -13.3821 -8.15715 -16.5027
RightLeg  17.7941 15.0955 3.13428
RightFoot  -10.5806 -0.104881 4.99816
RightToes  -1.74624e-010 0 -3.6325e-017
Spine  10.8557 -4.06174 20.2868
Spine1  -2.28886 -0.567145 -12.2199
HEad  -23.78 -44.9727 0.279281
LeftShoulder1  0.0595501 3.32699 -28.0193
LeftArm  -3.47198 16.4194 -37.4212
LeftForeArm  32.8562 -37.151 -6.49165
LeftHand  -0.023746 4.59964 0.392799
RightShoulder  -0.320817 -6.6579 1.79055
RightArm  -55.7979 20.0021 -10.4324
RightForeArm  26.5841 44.2327 9.15808
RightHand  -1.11199 10.1818 -8.63791
LeftUpLeg  -6.45097 6.1819 -2.4874
LeftLeg  33.165 -1.97994 -1.04465
LeftFoot  -3.16047 0.72335 -9.83321
LeftToes  -3.96543e-010 8.93632e-011 -2.58531e-011
329
root  1.56097 39.9482 16.5745 39.5654 69.6407 35.7352
RightUpLeg  -12.3757 -10.0918 -16.0596
RightLeg  17.492 16.0628 3.10859
RightFoot  -11.2176 -0.0822741 5.43559
RightToes  -1.74624e-010 0 -3.6325e-017
Spine  10.8267 -3.86868 20.0648
Spine1  -2.10518 -0.570495 -10.7773
HEad  -19.313 -39.3877 -4.9758
LeftShoulder1  -0.0896799 3.75652 -29.5038
LeftArm  -3.24967 16.4839 -36.7234
LeftForeArm  31.884 -36.9222 -6.48785
LeftHand  -0.0210365 4.32825 -0.154506
RightShoulder  -0.464491 -6.95214 5.73866
RightArm  -52.216 14.5522 -4.79572
RightForeArm  32.9431 60.6294 17.3667
RightHand  -1.15752 9.26993 -9.51312
LeftUpLeg  -8.66388 6.15806 -2.09862
LeftLeg  37.0986 -2.43044 -1.60916
LeftFoot  -3.08075 0.704655 -9.48787
LeftToes  -3.96543e-010 8.93632e-011 -2.58531e-011
330
root  1.8511 39.9277 16.6968 42.0436 70.8439 38.093
RightUpLeg  -11.505 -11.931 -16.1827
RightLeg  17.4757 16.5092 3.43507
RightFoot  -11.8738 -0.0550985 5.49592
RightToes  -1.74624e-010 0 -3.6325e-017
Spine  10.5696 -3.71936 19.2706
Spine1  -1.91847 -0.71118 -9.45811
HEad  -14.5291 -30.4818 -10.8505
LeftShoulder1  -0.199189 4.05619 -29.9585
LeftArm  -2.95276 17.0055 -36.9653
LeftForeArm  30.4139 -36.2119 -6.38384
LeftHand  -0.0229104 4.69998 0.610131
RightShoulder  -0.558215 -6.43188 11.5483
RightArm  -47.4769 9.03572 0.140428
RightForeArm  48.3496 73.5041 34.0167
RightHand  -0.992859 7.53877 -9.23943
LeftUpLeg  -11.0381 6.97281 -2.02666
LeftLeg  39.8143 -2.64304 -1.98305
LeftFoot  -2.99241 0.698967 -9.31454
LeftToes  -3.96543e-010 8.93632e-011 -2.58531e-011
331
root  2.19091 39.9456 16.8536 44.1566 71.9971 40.6055
RightUpLeg  -9.71695 -13.4223 -16.4052
RightLeg  16.9543 16.8652 3.6004
RightFoot  -12.3236 -0.0348197 5.68317
RightToes  -1.74624e-010 0 -3.6325e-017
Spine  10.4313 -3.46137 18.2988
Spine1  -1.05823 -0.692883 -8.12104
HEad  -13.0544 -27.5417 -12.3415
LeftShoulder1  -0.30221 4.32647 -30.5336
LeftArm  -2.94134 17.2378 -37.5729
LeftForeArm  30.57 -35.2581 -6.12332
LeftHand  -0.0228291 4.69104 0.397385
RightShoulder  -0.747027 -6.49907 18.1437
RightArm  -41.9964 5.42968 5.23609
RightForeArm  77.5258 79.5545 63.5443
RightHand  -1.06742 8.10736 -9.51454
LeftUpLeg  -12.5169 8.02301 -1.95625
LeftLeg  40.5375 -2.48698 -1.90242
LeftFoot  -2.89474 0.748646 -9.89133
LeftToes  -3.96543e-010 8.93632e-011 -2.58531e-011
332
root  2.55879 39.9464 16.9996 47.1157 73.4379 43.7413
RightUpLeg  -8.04581 -14.4017 -16.4215
RightLeg  16.3737 16.4194 3.49632
RightFoot  -12.8826 -0.00695783 5.97862
RightToes  -1.74624e-010 0 -3.6325e-017
Spine  10.1338 -3.14636 17.7871
Spine1  -0.43574 -0.653036 -6.84884
HEad  -10.6488 -22.71 -14.9556
LeftShoulder1  -0.410853 4.59566 -31.5406
LeftArm  -1.31786 17.1737 -37.5857
LeftForeArm  29.7967 -33.8604 -5.8113
LeftHand  -0.0204715 4.54873 0.299545
RightShoulder  -0.860378 -6.38392 23.0629
RightArm  -34.9004 1.24247 12.352
RightForeArm  95.561 80.4991 81.6071
RightHand  -1.03328 7.85477 -9.39292
LeftUpLeg  -14.0386 8.88628 -1.88239
LeftLeg  39.4399 -2.58954 -1.90793
LeftFoot  -3.10292 0.775311 -10.485
LeftToes  -3.96543e-010 8.93632e-011 -2.58531e-011
